<svg width="23" height="23" viewBox="0 0 23 23" fill="none" xmlns="http://www.w3.org/2000/svg">
<path d="M6.54485 7.47133C6.83955 4.81905 9.0814 2.8125 11.75 2.8125V2.8125C14.4186 2.8125 16.6605 4.81905 16.9551 7.47133L17.1912 9.59591C17.3123 10.6858 17.6671 11.7368 18.2313 12.6771L18.7732 13.5803C19.214 14.315 19.4344 14.6823 19.4202 14.9844C19.4053 15.3021 19.2402 15.5937 18.9755 15.7699C18.7237 15.9375 18.2953 15.9375 17.4385 15.9375H6.06147C5.20466 15.9375 4.77625 15.9375 4.52451 15.7699C4.25982 15.5937 4.09472 15.3021 4.07979 14.9844C4.0656 14.6823 4.28601 14.315 4.72683 13.5803L5.26874 12.6771C5.83294 11.7368 6.18769 10.6858 6.30879 9.59591L6.54485 7.47133Z" stroke="#FFB700" stroke-width="2"/>
<path d="M8 15.9375C8 16.43 8.097 16.9176 8.28545 17.3726C8.47391 17.8275 8.75013 18.2409 9.09835 18.5892C9.44657 18.9374 9.85997 19.2136 10.3149 19.402C10.7699 19.5905 11.2575 19.6875 11.75 19.6875C12.2425 19.6875 12.7301 19.5905 13.1851 19.402C13.64 19.2136 14.0534 18.9374 14.4017 18.5892C14.7499 18.2409 15.0261 17.8275 15.2145 17.3726C15.403 16.9176 15.5 16.43 15.5 15.9375" stroke="#FFB700" stroke-width="2" stroke-linecap="round"/>
</svg>
