<svg width="23" height="23" viewBox="0 0 23 23" fill="none" xmlns="http://www.w3.org/2000/svg">
<path fill-rule="evenodd" clip-rule="evenodd" d="M6.59375 15H15.5C17.2678 15 18.1516 15 18.7008 14.4508C19.25 13.9017 19.25 13.0178 19.25 11.25V6.5625C19.25 4.79473 19.25 3.91085 18.7008 3.36167C18.1516 2.8125 17.2678 2.8125 15.5 2.8125H8C6.23223 2.8125 5.34835 2.8125 4.79917 3.36167C4.25 3.91085 4.25 4.79473 4.25 6.5625V17.3438C4.25 16.0493 5.29933 15 6.59375 15ZM8.9375 5.5C7.83293 5.5 6.9375 6.39543 6.9375 7.5C6.9375 8.60457 7.83293 9.5 8.9375 9.5L14.5625 9.5C15.6671 9.5 16.5625 8.60457 16.5625 7.5C16.5625 6.39543 15.6671 5.5 14.5625 5.5L8.9375 5.5Z" fill="#279AF1"/>
<path d="M18.7008 14.4508L17.9937 13.7437L17.9937 13.7437L18.7008 14.4508ZM18.7008 3.36167L17.9937 4.06878L17.9937 4.06878L18.7008 3.36167ZM8.9375 5.5V4.5V5.5ZM8.9375 9.5V8.5V9.5ZM14.5625 9.5V10.5V9.5ZM14.5625 5.5V4.5V5.5ZM15.5 14H6.59375V16H15.5V14ZM17.9937 13.7437C17.9359 13.8015 17.8238 13.8865 17.4241 13.9403C16.9957 13.9979 16.4122 14 15.5 14V16C16.3556 16 17.0979 16.0021 17.6906 15.9224C18.3121 15.8389 18.9166 15.6493 19.4079 15.1579L17.9937 13.7437ZM18.25 11.25C18.25 12.1622 18.2479 12.7457 18.1903 13.1741C18.1365 13.5738 18.0515 13.6859 17.9937 13.7437L19.4079 15.1579C19.8993 14.6666 20.0889 14.0621 20.1724 13.4406C20.2521 12.8479 20.25 12.1056 20.25 11.25H18.25ZM18.25 6.5625V11.25H20.25V6.5625H18.25ZM17.9937 4.06878C18.0515 4.1266 18.1365 4.23866 18.1903 4.63836C18.2479 5.06683 18.25 5.65035 18.25 6.5625H20.25C20.25 5.70689 20.2521 4.96458 20.1724 4.37187C20.0889 3.75039 19.8993 3.14592 19.4079 2.65457L17.9937 4.06878ZM15.5 3.8125C16.4122 3.8125 16.9957 3.81462 17.4241 3.87223C17.8238 3.92597 17.9359 4.01096 17.9937 4.06878L19.4079 2.65457C18.9166 2.16321 18.3121 1.97362 17.6906 1.89006C17.0979 1.81038 16.3556 1.8125 15.5 1.8125V3.8125ZM8 3.8125H15.5V1.8125H8V3.8125ZM5.50628 4.06878C5.5641 4.01096 5.67616 3.92597 6.07586 3.87223C6.50433 3.81462 7.08785 3.8125 8 3.8125V1.8125C7.14439 1.8125 6.40208 1.81038 5.80937 1.89006C5.18789 1.97362 4.58342 2.16321 4.09207 2.65457L5.50628 4.06878ZM5.25 6.5625C5.25 5.65035 5.25212 5.06683 5.30973 4.63836C5.36347 4.23866 5.44846 4.1266 5.50628 4.06878L4.09207 2.65457C3.60071 3.14592 3.41112 3.75039 3.32756 4.37187C3.24788 4.96458 3.25 5.70689 3.25 6.5625H5.25ZM5.25 17.3438V6.5625H3.25V17.3438H5.25ZM6.59375 14C4.74705 14 3.25 15.497 3.25 17.3438H5.25C5.25 16.6016 5.85162 16 6.59375 16V14ZM7.9375 7.5C7.9375 6.94772 8.38522 6.5 8.9375 6.5V4.5C7.28065 4.5 5.9375 5.84315 5.9375 7.5H7.9375ZM8.9375 8.5C8.38522 8.5 7.9375 8.05228 7.9375 7.5H5.9375C5.9375 9.15685 7.28065 10.5 8.9375 10.5V8.5ZM14.5625 8.5L8.9375 8.5V10.5L14.5625 10.5V8.5ZM15.5625 7.5C15.5625 8.05229 15.1148 8.5 14.5625 8.5V10.5C16.2194 10.5 17.5625 9.15686 17.5625 7.5H15.5625ZM14.5625 6.5C15.1148 6.5 15.5625 6.94772 15.5625 7.5H17.5625C17.5625 5.84315 16.2194 4.5 14.5625 4.5V6.5ZM8.9375 6.5L14.5625 6.5V4.5L8.9375 4.5V6.5ZM10.8125 18.6875H6.59375V20.6875H10.8125V18.6875ZM3.25 17.3438C3.25 19.1905 4.74705 20.6875 6.59375 20.6875V18.6875C5.85162 18.6875 5.25 18.0859 5.25 17.3438H3.25Z" fill="#279AF1"/>
<path d="M19.25 19.6875H9.875" stroke="#279AF1" stroke-width="2" stroke-linecap="round"/>
</svg>
