<svg width="23" height="23" viewBox="0 0 23 23" fill="none" xmlns="http://www.w3.org/2000/svg">
<path d="M19.9 16.2463C20.235 14.9962 20.2779 13.6858 20.0254 12.4164C19.7729 11.1471 19.2318 9.95284 18.4439 8.92608C17.6561 7.89931 16.6426 7.06755 15.4818 6.49514C14.3211 5.92272 13.0442 5.625 11.75 5.625C10.4558 5.625 9.17893 5.92272 8.01819 6.49514C6.85745 7.06755 5.84395 7.89931 5.05608 8.92608C4.26822 9.95284 3.72711 11.1471 3.47462 12.4164C3.22214 13.6858 3.26504 14.9962 3.6 16.2463" stroke="#1865F2" stroke-width="2" stroke-linecap="round"/>
<path d="M12.4678 14.6084C12.9248 15.2734 12.6035 16.288 11.75 16.8744C10.8966 17.4609 9.83424 17.3973 9.37724 16.7322C8.89871 16.0359 7.26723 12.1765 6.242 9.70367C6.03671 9.20853 6.64172 8.79277 7.03036 9.16192C8.97126 11.0055 11.9893 13.912 12.4678 14.6084Z" stroke="#1865F2" stroke-width="2"/>
<path d="M11.75 5.625V7.5" stroke="#1865F2" stroke-width="2" stroke-linecap="round"/>
<path d="M5.78374 8.09601L7.10956 9.42183" stroke="#1865F2" stroke-width="2" stroke-linecap="round"/>
<path d="M17.7163 8.09601L16.3904 9.42183" stroke="#1865F2" stroke-width="2" stroke-linecap="round"/>
<path d="M19.9 16.246L18.0889 15.7607" stroke="#1865F2" stroke-width="2" stroke-linecap="round"/>
<path d="M3.59998 16.246L5.41109 15.7607" stroke="#1865F2" stroke-width="2" stroke-linecap="round"/>
</svg>
