<svg width="30" height="30" viewBox="0 0 30 30" fill="none" xmlns="http://www.w3.org/2000/svg">
<path d="M2.93626 13.1555C2.81442 12.7008 2.8144 12.2222 2.93621 11.7676C3.05802 11.3129 3.29737 10.8984 3.63018 10.5656L10.5653 3.63038C10.8981 3.29756 11.3127 3.05822 11.7673 2.9364C12.2219 2.81459 12.7005 2.81461 13.1552 2.93645L19.6447 4.67534C19.7123 3.78629 20.0218 2.93265 20.5398 2.20688L12.7236 0.112732C12.1625 -0.0375804 11.5719 -0.0375773 11.0108 0.112741C10.4498 0.263061 9.93824 0.5584 9.52754 0.969078L0.969064 9.52764C0.558391 9.93836 0.263057 10.4499 0.11274 11.011C-0.0375768 11.572 -0.0375801 12.1627 0.11273 12.7237L2.28742 20.8398C2.99833 20.2969 3.84472 19.9597 4.73421 19.8651L2.93626 13.1555Z" fill="#B080FF"/>
<path d="M25.2057 9.91056L27.0637 16.8445C27.1856 17.2992 27.1854 17.7778 27.0637 18.2323C26.9418 18.687 26.7024 19.1015 26.3696 19.4343L19.4345 26.3697C19.1017 26.7025 18.6872 26.9418 18.2325 27.0637C17.7779 27.1854 17.2992 27.1854 16.8446 27.0637L10.135 25.2657C10.0405 26.1552 9.70336 27.0016 9.1604 27.7125L17.2764 29.8872C17.8373 30.0376 18.4281 30.0376 18.9891 29.8872C19.5502 29.7368 20.0617 29.4416 20.4724 29.0309L29.0309 20.4723C29.4416 20.0615 29.7369 19.5501 29.8872 18.9889C30.0376 18.428 30.0376 17.8372 29.8872 17.2762L27.6305 8.85632C26.9346 9.42431 26.0956 9.78912 25.2057 9.91056Z" fill="#B080FF"/>
<path d="M2.48253 21.9591C1.93288 22.5087 1.55856 23.2091 1.40691 23.9714C1.25526 24.7339 1.33309 25.5241 1.63056 26.2423C1.92802 26.9603 2.43176 27.5742 3.07806 28.0061C3.72438 28.4379 4.48423 28.6685 5.26155 28.6685C6.03886 28.6685 6.79873 28.4379 7.44503 28.0061C8.09135 27.5742 8.59509 26.9603 8.89255 26.2423C9.19002 25.5241 9.26784 24.7339 9.11618 23.9714C8.96454 23.2091 8.59023 22.5087 8.04057 21.9591C7.30296 21.2232 6.30353 20.8098 5.26155 20.8098C4.21958 20.8098 3.22015 21.2232 2.48253 21.9591Z" fill="#506A9C"/>
<path d="M21.7556 2.27996C21.206 2.82961 20.8316 3.5299 20.6801 4.29229C20.5284 5.05467 20.6062 5.84491 20.9037 6.56307C21.2012 7.28121 21.7048 7.89504 22.3511 8.32689C22.9975 8.75876 23.7573 8.98927 24.5346 8.98927C25.312 8.98927 26.0718 8.75876 26.7182 8.32689C27.3644 7.89504 27.8681 7.28121 28.1656 6.56307C28.4631 5.84491 28.5409 5.05467 28.3892 4.29229C28.2377 3.5299 27.8632 2.82961 27.3137 2.27996C26.5761 1.544 25.5766 1.13068 24.5346 1.13068C23.4927 1.13068 22.4932 1.544 21.7556 2.27996Z" fill="#506A9C"/>
<path d="M17.3068 25.418C17.149 25.418 16.9919 25.3974 16.8394 25.3565L10.6976 23.7107C10.4929 22.6171 9.96229 21.6109 9.17556 20.8242C8.38881 20.0375 7.38264 19.5068 6.28903 19.3021L4.64341 13.1607C4.56183 12.8544 4.56206 12.532 4.64411 12.2258C4.72616 11.9196 4.88715 11.6403 5.11096 11.4158L11.4148 5.11166C11.6391 4.88741 11.9184 4.72615 12.2247 4.64406C12.5311 4.56199 12.8536 4.56201 13.1599 4.64411L19.1295 6.24369C19.3663 7.33054 19.9258 8.32053 20.7348 9.084C21.5437 9.84745 22.5644 10.3488 23.6631 10.5223L25.3556 16.8403C25.4371 17.1467 25.437 17.4691 25.3548 17.7752C25.2728 18.0815 25.1118 18.3608 24.8879 18.5853L18.584 24.8893C18.4167 25.0574 18.2175 25.1908 17.9983 25.2815C17.7791 25.3723 17.5441 25.4187 17.3068 25.418Z" fill="#506A9C"/>
</svg>
