<svg width="23" height="23" viewBox="0 0 23 23" fill="none" xmlns="http://www.w3.org/2000/svg">
<path d="M13.7526 3.15135L14.7477 3.05184V3.05184L13.7526 3.15135ZM13.6385 2.47944L12.72 2.875L12.72 2.875L13.6385 2.47944ZM13.9724 4.34853L14.8251 3.82604V3.82604L13.9724 4.34853ZM15.0585 4.79841L14.8251 3.82604L14.8251 3.82604L15.0585 4.79841ZM16.0605 4.10732L15.4605 3.30732L15.4436 3.31999L15.4273 3.33336L16.0605 4.10732ZM16.0605 4.10731L16.6605 4.90731L16.6774 4.89464L16.6937 4.88126L16.0605 4.10731ZM16.6163 3.71294L16.2466 2.78381L16.6163 3.71294ZM17.4464 3.75435L16.9861 4.64208L16.9861 4.64208L17.4464 3.75435ZM17.9603 4.20206L17.2532 4.90917L17.2532 4.90917L17.9603 4.20206ZM18.7979 5.03969L19.505 4.33258L19.505 4.33258L18.7979 5.03969ZM19.2456 5.55354L18.3579 6.01388L18.3579 6.01389L19.2456 5.55354ZM19.287 6.38362L18.3579 6.01389L18.3579 6.01389L19.287 6.38362ZM18.8927 6.93947L19.5998 7.64658L19.635 7.61131L19.6666 7.57271L18.8927 6.93947ZM18.8926 6.93948L18.1855 6.23237L18.1503 6.26764L18.1187 6.30624L18.8926 6.93948ZM18.2015 7.94146L19.1739 8.1749L19.1739 8.1749L18.2015 7.94146ZM18.6514 9.02754L19.1739 8.1749L19.1739 8.1749L18.6514 9.02754ZM19.8486 9.24736L19.9481 8.25232L19.8486 9.24736ZM20.5206 9.36155L20.9161 8.44312L20.9161 8.44312L20.5206 9.36155ZM21.0782 9.97776L22.0315 9.67554L22.0315 9.67554L21.0782 9.97776ZM21.0783 12.5221L22.0315 12.8243V12.8243L21.0783 12.5221ZM20.5205 13.1385L20.916 14.057L20.916 14.057L20.5205 13.1385ZM19.8487 13.2526L19.7492 12.2576L19.8487 13.2526ZM18.6519 13.4723L18.1296 12.6196L18.1296 12.6196L18.6519 13.4723ZM18.2019 14.5587L17.2296 14.7923L17.2296 14.7923L18.2019 14.5587ZM18.8928 15.5602L18.1188 16.1935L18.1188 16.1935L18.8928 15.5602ZM19.287 16.1158L18.3579 16.4857L18.3579 16.4857L19.287 16.1158ZM19.2456 16.9462L18.3579 16.4857L18.3579 16.4857L19.2456 16.9462ZM18.798 17.4598L18.0909 16.7527L18.0909 16.7527L18.798 17.4598ZM17.9603 18.2975L17.2532 17.5904L17.2532 17.5904L17.9603 18.2975ZM17.4465 18.7452L16.9861 17.8575L16.9861 17.8575L17.4465 18.7452ZM16.6164 18.7866L16.9861 17.8575V17.8575L16.6164 18.7866ZM16.0605 18.3923L16.6938 17.6183L16.6938 17.6183L16.0605 18.3923ZM15.0586 17.7012L15.292 16.7288H15.292L15.0586 17.7012ZM13.9725 18.151L14.8251 18.6735L14.8251 18.6735L13.9725 18.151ZM13.7527 19.3484L14.7477 19.4479V19.4479L13.7527 19.3484ZM13.6384 20.0207L14.5568 20.4163L14.5568 20.4163L13.6384 20.0207ZM13.0223 20.5782L13.3246 21.5314L13.3246 21.5314L13.0223 20.5782ZM10.4778 20.5782L10.78 19.625L10.78 19.625L10.4778 20.5782ZM9.86155 20.0206L8.94312 20.4161L8.94312 20.4161L9.86155 20.0206ZM9.74736 19.3486L8.75233 19.4481L9.74736 19.3486ZM9.52753 18.1514L8.6749 18.6739L9.52753 18.1514ZM8.44148 17.7015L8.20806 16.7292H8.20806L8.44148 17.7015ZM7.43946 18.3927L6.80622 17.6187L6.76762 17.6503L6.73235 17.6856L7.43946 18.3927ZM7.43944 18.3927L8.07268 19.1666L8.11128 19.1351L8.14655 19.0998L7.43944 18.3927ZM6.88356 18.7871L7.25328 19.7162L7.25328 19.7162L6.88356 18.7871ZM6.05351 18.7457L5.59318 19.6334H5.59318L6.05351 18.7457ZM5.53963 18.2979L4.83253 19.005H4.83253L5.53963 18.2979ZM4.2543 16.9465L3.36656 17.4068L3.36656 17.4068L4.2543 16.9465ZM4.2129 16.1164L3.28376 15.7467L3.28376 15.7467L4.2129 16.1164ZM4.60728 15.5605L5.38124 16.1938H5.38124L4.60728 15.5605ZM5.2984 14.5585L4.32603 14.3251L5.2984 14.5585ZM4.84853 13.4724L5.37103 12.6198L5.37103 12.6198L4.84853 13.4724ZM3.65134 13.2526L3.75084 12.2576H3.75084L3.65134 13.2526ZM2.97944 13.1385L3.375 12.22L3.375 12.22L2.97944 13.1385ZM2.42176 12.5222L3.375 12.22H3.375L2.42176 12.5222ZM2.42179 9.97769L3.375 10.28H3.375L2.42179 9.97769ZM2.97936 9.36158L2.58371 8.44318L2.58371 8.44318L2.97936 9.36158ZM3.65146 9.24735L3.55195 8.25232H3.55195L3.65146 9.24735ZM4.849 9.02744L4.32639 8.17487L4.32638 8.17487L4.849 9.02744ZM5.29879 7.94156L4.32639 8.17487L5.29879 7.94156ZM4.60745 6.9392L3.80745 7.5392L3.82012 7.5561L3.83349 7.57244L4.60745 6.9392ZM4.60744 6.9392L5.40744 6.3392L5.39477 6.32231L5.3814 6.30596L4.60744 6.9392ZM4.21289 6.38306L5.14208 6.01346L5.14208 6.01346L4.21289 6.38306ZM4.25428 5.55324L3.36648 5.09301L4.25428 5.55324ZM4.70219 5.03914L5.40929 5.74625V5.74625L4.70219 5.03914ZM5.53967 4.20166L4.83257 3.49455V3.49455L5.53967 4.20166ZM6.05355 3.75391L5.59322 2.86616L5.59322 2.86616L6.05355 3.75391ZM6.8836 3.71251L6.51389 4.64166L6.8836 3.71251ZM7.43956 4.10696L6.80632 4.88092L6.80632 4.88092L7.43956 4.10696ZM8.44136 4.79801L8.67494 3.82567L8.44136 4.79801ZM9.52766 4.34805L10.3804 4.87043V4.87043L9.52766 4.34805ZM9.74738 3.15122L8.75234 3.05172V3.05172L9.74738 3.15122ZM9.86151 2.47953L8.94303 2.08406L8.94303 2.08406L9.86151 2.47953ZM10.4779 1.92173L10.1758 0.968457L10.1758 0.968457L10.4779 1.92173ZM13.0222 1.92176L12.72 2.875V2.875L13.0222 1.92176ZM14.7477 3.05184C14.7197 2.77184 14.6945 2.40343 14.5569 2.08388L12.72 2.875C12.7037 2.83718 12.707 2.8245 12.7171 2.88977C12.7284 2.96266 12.7389 3.06351 12.7576 3.25085L14.7477 3.05184ZM14.8251 3.82604C14.8698 3.89903 14.8559 3.92485 14.8293 3.76409C14.8042 3.61196 14.7824 3.39947 14.7477 3.05184L12.7576 3.25085C12.7896 3.57122 12.818 3.85972 12.8561 4.0904C12.8929 4.31243 12.9555 4.60284 13.1198 4.87103L14.8251 3.82604ZM14.8251 3.82604V3.82604L13.1198 4.87103C13.5725 5.60981 14.4495 5.97305 15.292 5.77078L14.8251 3.82604ZM15.4273 3.33336C15.1569 3.55458 14.9912 3.68946 14.8659 3.77923C14.7334 3.87411 14.7419 3.84602 14.8251 3.82604L15.292 5.77078C15.5978 5.69735 15.8475 5.53627 16.0304 5.40523C16.2205 5.2691 16.4445 5.08515 16.6937 4.88127L15.4273 3.33336ZM15.4605 3.30731L15.4605 3.30732L16.6605 4.90732L16.6605 4.90731L15.4605 3.30731ZM16.2466 2.78381C15.9233 2.91245 15.6451 3.15516 15.4273 3.33335L16.6937 4.88126C16.8395 4.76205 16.9181 4.69811 16.9777 4.65458C17.031 4.6156 17.0243 4.62685 16.9861 4.64208L16.2466 2.78381ZM17.9068 2.86661C17.3916 2.59946 16.7858 2.56924 16.2466 2.78381L16.9861 4.64208V4.64208L17.9068 2.86661ZM18.6674 3.49495C18.4684 3.29598 18.2156 3.02678 17.9068 2.86661L16.9861 4.64208C16.9495 4.62312 16.944 4.61126 16.9932 4.65535C17.0481 4.70459 17.12 4.77604 17.2532 4.90917L18.6674 3.49495ZM19.505 4.33258L18.6674 3.49495L17.2532 4.90917L18.0908 5.74679L19.505 4.33258ZM20.1334 5.09319C19.9732 4.78432 19.704 4.53156 19.505 4.33258L18.0908 5.74679C18.2239 5.87992 18.2954 5.95186 18.3446 6.00678C18.3887 6.05596 18.3768 6.05044 18.3579 6.01388L20.1334 5.09319ZM20.2162 6.75334C20.4307 6.21416 20.4005 5.60836 20.1334 5.09319L18.3579 6.01389L18.3579 6.01389L20.2162 6.75334ZM19.6666 7.57271C19.8448 7.35491 20.0875 7.07662 20.2162 6.75334L18.3579 6.01389C18.3731 5.97562 18.3844 5.96895 18.3454 6.02228C18.3019 6.08182 18.2379 6.16052 18.1187 6.30623L19.6666 7.57271ZM19.5997 7.64659L19.5998 7.64658L18.1855 6.23236L18.1855 6.23237L19.5997 7.64659ZM19.1739 8.1749C19.1539 8.25814 19.1258 8.26657 19.2207 8.1341C19.3105 8.00874 19.4454 7.84311 19.6666 7.57272L18.1187 6.30624C17.9148 6.55543 17.7308 6.77949 17.5947 6.96958C17.4637 7.15255 17.3026 7.40217 17.2292 7.70803L19.1739 8.1749ZM19.1739 8.1749V8.1749L17.2292 7.70802C17.0269 8.55053 17.3901 9.42745 18.1289 9.88017L19.1739 8.1749ZM19.9481 8.25232C19.6005 8.21756 19.388 8.19581 19.2359 8.17066C19.0751 8.14407 19.1009 8.13017 19.1739 8.1749L18.1289 9.88017C18.3971 10.0445 18.6875 10.1071 18.9095 10.1439C19.1402 10.182 19.4287 10.2104 19.7491 10.2424L19.9481 8.25232ZM20.9161 8.44312C20.5966 8.30548 20.2281 8.28033 19.9481 8.25232L19.7491 10.2424C19.9365 10.2611 20.0373 10.2716 20.1102 10.2829C20.1755 10.293 20.1628 10.2963 20.125 10.28L20.9161 8.44312ZM22.0315 9.67554C21.8561 9.12238 21.4491 8.67267 20.9161 8.44312L20.125 10.28L20.125 10.28L22.0315 9.67554ZM22.125 10.6577C22.125 10.3763 22.1366 10.0072 22.0315 9.67554L20.125 10.28C20.1126 10.2407 20.117 10.2284 20.1206 10.2944C20.1247 10.3681 20.125 10.4694 20.125 10.6577H22.125ZM22.125 11.8424V10.6577H20.125V11.8424H22.125ZM22.0315 12.8243C22.1366 12.4927 22.125 12.1237 22.125 11.8424H20.125C20.125 12.0306 20.1247 12.132 20.1206 12.2056C20.117 12.2715 20.1126 12.2593 20.125 12.22L22.0315 12.8243ZM20.916 14.057C21.4491 13.8274 21.8562 13.3776 22.0315 12.8243L20.125 12.22L20.125 12.22L20.916 14.057ZM19.9482 14.2477C20.2282 14.2197 20.5965 14.1945 20.916 14.057L20.125 12.22C20.1628 12.2037 20.1755 12.207 20.1102 12.2171C20.0373 12.2284 19.9365 12.2389 19.7492 12.2576L19.9482 14.2477ZM19.1743 14.3251C19.1013 14.3698 19.0755 14.3559 19.2362 14.3293C19.3883 14.3042 19.6007 14.2824 19.9482 14.2477L19.7492 12.2576C19.4289 12.2896 19.1405 12.318 18.9099 12.3561C18.688 12.3928 18.3977 12.4554 18.1296 12.6196L19.1743 14.3251ZM19.1743 14.3251V14.3251L18.1296 12.6196C17.3905 13.0723 17.0271 13.9496 17.2296 14.7923L19.1743 14.3251ZM19.6667 14.927C19.4456 14.6567 19.3108 14.4912 19.221 14.3659C19.1262 14.2334 19.1543 14.2419 19.1743 14.3251L17.2296 14.7923C17.3031 15.098 17.4641 15.3475 17.5951 15.5304C17.7312 15.7204 17.915 15.9444 18.1188 16.1935L19.6667 14.927ZM20.2161 15.746C20.0875 15.4229 19.8449 15.1447 19.6667 14.927L18.1188 16.1935C18.238 16.3391 18.3019 16.4178 18.3454 16.4773C18.3844 16.5306 18.3731 16.5239 18.3579 16.4857L20.2161 15.746ZM20.1333 17.4066C20.4006 16.8913 20.4308 16.2853 20.2161 15.746L18.3579 16.4857V16.4857L20.1333 17.4066ZM19.5052 18.1669C19.7041 17.968 19.9731 17.7153 20.1333 17.4066L18.3579 16.4857C18.3769 16.4492 18.3887 16.4436 18.3447 16.4928C18.2954 16.5477 18.224 16.6196 18.0909 16.7527L19.5052 18.1669ZM18.6674 19.0046L19.5052 18.1669L18.0909 16.7527L17.2532 17.5904L18.6674 19.0046ZM17.9068 19.633C18.2157 19.4728 18.4684 19.2036 18.6674 19.0046L17.2532 17.5904C17.1201 17.7235 17.0481 17.795 16.9932 17.8442C16.944 17.8883 16.9496 17.8765 16.9861 17.8575L17.9068 19.633ZM16.2466 19.7158C16.7858 19.9303 17.3917 19.9001 17.9068 19.633L16.9861 17.8575L16.2466 19.7158ZM15.4273 19.1662C15.6451 19.3444 15.9234 19.5871 16.2466 19.7158L16.9861 17.8575C17.0244 17.8727 17.0311 17.884 16.9777 17.845C16.9182 17.8015 16.8395 17.7375 16.6938 17.6183L15.4273 19.1662ZM14.8251 18.6735C14.7419 18.6536 14.7335 18.6255 14.8659 18.7204C14.9913 18.8101 15.1569 18.945 15.4273 19.1662L16.6938 17.6183C16.4446 17.4144 16.2205 17.2305 16.0305 17.0943C15.8475 16.9633 15.5979 16.8022 15.292 16.7288L14.8251 18.6735ZM14.8251 18.6735L15.292 16.7288C14.4495 16.5265 13.5726 16.8898 13.1198 17.6286L14.8251 18.6735ZM14.7477 19.4479C14.7825 19.1002 14.8042 18.8877 14.8294 18.7355C14.856 18.5747 14.8699 18.6005 14.8251 18.6735L13.1198 17.6286C12.9555 17.8968 12.8929 18.1872 12.8562 18.4092C12.818 18.6399 12.7897 18.9285 12.7576 19.2489L14.7477 19.4479ZM14.5568 20.4163C14.6945 20.0967 14.7197 19.7281 14.7477 19.4479L12.7576 19.2489C12.7389 19.4364 12.7284 19.5373 12.7171 19.6102C12.707 19.6755 12.7037 19.6628 12.72 19.625L14.5568 20.4163ZM13.3246 21.5314C13.8777 21.356 14.3273 20.9491 14.5568 20.4163L12.72 19.625L12.72 19.625L13.3246 21.5314ZM12.3422 21.625C12.6237 21.625 12.9929 21.6366 13.3246 21.5314L12.72 19.625C12.7593 19.6125 12.7716 19.617 12.7056 19.6206C12.6319 19.6247 12.5305 19.625 12.3422 19.625V21.625ZM11.1577 21.625H12.3422V19.625H11.1577V21.625ZM10.1755 21.5315C10.5072 21.6366 10.8763 21.625 11.1577 21.625V19.625C10.9694 19.625 10.8681 19.6247 10.7944 19.6206C10.7284 19.617 10.7407 19.6126 10.78 19.625L10.1755 21.5315ZM8.94312 20.4161C9.17267 20.9491 9.62238 21.3561 10.1755 21.5315L10.78 19.625H10.78L8.94312 20.4161ZM8.75233 19.4481C8.78033 19.7282 8.80548 20.0966 8.94312 20.4161L10.78 19.625C10.7963 19.6628 10.793 19.6755 10.7829 19.6102C10.7716 19.5373 10.7611 19.4365 10.7424 19.2491L8.75233 19.4481ZM8.6749 18.6739C8.63017 18.6009 8.64407 18.5751 8.67066 18.7359C8.69582 18.888 8.71756 19.1005 8.75233 19.4481L10.7424 19.2491C10.7104 18.9288 10.682 18.6402 10.6439 18.4095C10.6071 18.1875 10.5445 17.8971 10.3802 17.6289L8.6749 18.6739ZM8.6749 18.6739L10.3802 17.6289C9.92744 16.8901 9.05054 16.5269 8.20806 16.7292L8.6749 18.6739ZM8.07269 19.1666C8.34309 18.9454 8.50873 18.8105 8.63409 18.7207C8.76658 18.6258 8.75815 18.6539 8.6749 18.6739L8.20806 16.7292C7.90219 16.8026 7.65255 16.9637 7.46958 17.0947C7.27948 17.2309 7.05542 17.4148 6.80622 17.6187L8.07269 19.1666ZM8.14655 19.0998L8.14656 19.0998L6.73235 17.6856L6.73234 17.6856L8.14655 19.0998ZM7.25328 19.7162C7.57657 19.5876 7.85487 19.3448 8.07268 19.1666L6.80621 17.6187C6.66048 17.7379 6.58179 17.8019 6.52224 17.8454C6.46891 17.8844 6.47558 17.8732 6.51384 17.8579L7.25328 19.7162ZM5.59318 19.6334C6.10833 19.9005 6.7141 19.9308 7.25328 19.7162L6.51385 17.8579H6.51385L5.59318 19.6334ZM4.83253 19.005C5.03152 19.204 5.28429 19.4732 5.59318 19.6334L6.51385 17.8579C6.55041 17.8769 6.55592 17.8887 6.50674 17.8447C6.45182 17.7954 6.37987 17.724 6.24674 17.5908L4.83253 19.005ZM3.99493 18.1674L4.83253 19.005L6.24674 17.5908L5.40914 16.7532L3.99493 18.1674ZM3.36656 17.4068C3.52673 17.7157 3.79594 17.9684 3.99493 18.1674L5.40914 16.7532C5.27601 16.6201 5.20455 16.5481 5.15531 16.4932C5.11122 16.444 5.12308 16.4496 5.14204 16.4861L3.36656 17.4068ZM3.28376 15.7467C3.06921 16.2859 3.09942 16.8916 3.36656 17.4068L5.14204 16.4861V16.4861L3.28376 15.7467ZM3.83333 14.9273C3.65513 15.1451 3.4124 15.4234 3.28376 15.7467L5.14204 16.4861C5.12681 16.5244 5.11556 16.5311 5.15454 16.4777C5.19807 16.4182 5.26202 16.3395 5.38124 16.1938L3.83333 14.9273ZM4.32603 14.3251C4.34602 14.2418 4.3741 14.2334 4.27922 14.3659C4.18944 14.4913 4.05456 14.6569 3.83333 14.9273L5.38124 16.1938C5.58513 15.9446 5.76908 15.7205 5.90522 15.5304C6.03626 15.3475 6.19735 15.0978 6.27077 14.792L4.32603 14.3251ZM4.32603 14.3251H4.32603L6.27077 14.792C6.47304 13.9495 6.1098 13.0725 5.37103 12.6198L4.32603 14.3251ZM3.55184 14.2477C3.89946 14.2824 4.11196 14.3042 4.26408 14.3293C4.42484 14.3559 4.39903 14.3698 4.32604 14.3251L5.37103 12.6198C5.10284 12.4555 4.81243 12.3929 4.59039 12.3561C4.35972 12.318 4.07122 12.2896 3.75084 12.2576L3.55184 14.2477ZM2.58388 14.0569C2.90343 14.1945 3.27184 14.2197 3.55184 14.2477L3.75084 12.2576C3.56351 12.2389 3.46266 12.2284 3.38977 12.2171C3.3245 12.207 3.33718 12.2037 3.375 12.22L2.58388 14.0569ZM1.46851 12.8244C1.64389 13.3776 2.0509 13.8273 2.58389 14.0569L3.375 12.22H3.375L1.46851 12.8244ZM1.375 11.8423C1.375 12.1237 1.36337 12.4928 1.46852 12.8244L3.375 12.22C3.38745 12.2593 3.38296 12.2716 3.37936 12.2056C3.37534 12.132 3.375 12.0306 3.375 11.8423H1.375ZM1.375 10.6578V11.8423H3.375V10.6578H1.375ZM1.46857 9.67539C1.36336 10.0071 1.375 10.3763 1.375 10.6578H3.375C3.375 10.4695 3.37534 10.3681 3.37936 10.2944C3.38296 10.2284 3.38745 10.2407 3.375 10.28L1.46857 9.67539ZM2.58371 8.44318C2.05086 8.67273 1.64396 9.12235 1.46857 9.67539L3.375 10.28L3.375 10.28L2.58371 8.44318ZM3.55195 8.25232C3.27187 8.28032 2.90334 8.30548 2.58371 8.44318L3.375 10.28C3.33717 10.2963 3.32449 10.293 3.38977 10.2829C3.46268 10.2716 3.56357 10.2611 3.75096 10.2424L3.55195 8.25232ZM4.32638 8.17487C4.39939 8.13012 4.42522 8.14403 4.26441 8.17062C4.11225 8.19579 3.89969 8.21754 3.55195 8.25232L3.75096 10.2424C4.07143 10.2103 4.36002 10.182 4.59077 10.1438C4.81287 10.1071 5.10337 10.0444 5.37162 9.88001L4.32638 8.17487ZM4.32639 8.17487L4.32639 8.17487L5.37162 9.88001C6.11016 9.42729 6.4733 8.55059 6.27119 7.70825L4.32639 8.17487ZM3.83349 7.57244C4.0548 7.84293 4.18974 8.00864 4.27955 8.13404C4.37447 8.26658 4.34637 8.25815 4.32639 8.17487L6.27119 7.70825C6.19778 7.40229 6.03665 7.15257 5.90557 6.96954C5.76939 6.77939 5.58537 6.55525 5.3814 6.30596L3.83349 7.57244ZM3.80744 7.5392L3.80745 7.5392L5.40745 6.3392L5.40744 6.3392L3.80744 7.5392ZM3.2837 6.75267C3.41236 7.07611 3.6552 7.35454 3.83349 7.57244L5.3814 6.30596C5.26212 6.16017 5.19814 6.08144 5.15459 6.02186C5.11559 5.9685 5.12685 5.97517 5.14208 6.01346L3.2837 6.75267ZM3.36648 5.09301C3.09949 5.60804 3.06929 6.21362 3.2837 6.75267L5.14208 6.01346L5.14208 6.01346L3.36648 5.09301ZM3.99508 4.33204C3.79601 4.5311 3.52668 4.78398 3.36648 5.09301L5.14208 6.01346C5.12312 6.05004 5.11125 6.05556 5.15536 6.00636C5.20462 5.95141 5.2761 5.87944 5.40929 5.74625L3.99508 4.33204ZM4.83257 3.49455L3.99508 4.33204L5.40929 5.74625L6.24678 4.90876L4.83257 3.49455ZM5.59322 2.86616C5.28433 3.02634 5.03156 3.29556 4.83257 3.49455L6.24678 4.90876C6.37992 4.77563 6.45186 4.70417 6.50678 4.65493C6.55596 4.61083 6.55045 4.6227 6.51389 4.64166L5.59322 2.86616ZM7.25332 2.78337C6.71414 2.56882 6.10837 2.59904 5.59322 2.86616L6.51389 4.64166L6.51389 4.64166L7.25332 2.78337ZM8.0728 3.33301C7.85496 3.15478 7.57661 2.91201 7.25332 2.78337L6.51389 4.64166C6.47561 4.62643 6.46894 4.61517 6.52229 4.65417C6.58186 4.69771 6.66057 4.76167 6.80632 4.88092L8.0728 3.33301ZM8.67494 3.82567C8.75818 3.84567 8.7666 3.87374 8.63412 3.77885C8.50877 3.68908 8.34315 3.55421 8.0728 3.33301L6.80632 4.88092C7.05548 5.08478 7.2795 5.2687 7.46954 5.40482C7.65246 5.53583 7.90202 5.6969 8.20778 5.77035L8.67494 3.82567ZM8.67494 3.82567L8.67494 3.82567L8.20778 5.77035C9.05047 5.97278 9.92765 5.60944 10.3804 4.87043L8.67494 3.82567ZM8.75234 3.05172C8.71759 3.39924 8.69585 3.61166 8.6707 3.76374C8.64413 3.92445 8.63024 3.89865 8.67494 3.82567L10.3804 4.87043C10.5446 4.6023 10.6072 4.31198 10.6439 4.09001C10.682 3.85941 10.7104 3.571 10.7424 3.25073L8.75234 3.05172ZM8.94303 2.08406C8.80548 2.40352 8.78033 2.77181 8.75234 3.05172L10.7424 3.25073C10.7611 3.06345 10.7716 2.96263 10.7829 2.88976C10.793 2.82452 10.7963 2.83719 10.78 2.875L8.94303 2.08406ZM10.1758 0.968457C9.62243 1.14382 9.17258 1.55093 8.94303 2.08406L10.78 2.875L10.78 2.875L10.1758 0.968457ZM11.1576 0.875C10.8763 0.875 10.5073 0.863378 10.1758 0.968457L10.78 2.875C10.7407 2.88744 10.7285 2.88295 10.7944 2.87936C10.868 2.87534 10.9694 2.875 11.1576 2.875V0.875ZM12.3423 0.875H11.1576V2.875H12.3423V0.875ZM13.3244 0.968516C12.9928 0.86337 12.6237 0.875 12.3423 0.875V2.875C12.5306 2.875 12.632 2.87534 12.7056 2.87936C12.7716 2.88296 12.7593 2.88745 12.72 2.875L13.3244 0.968516ZM14.5569 2.08388C14.3273 1.5509 13.8776 1.14389 13.3244 0.968516L12.72 2.875L12.72 2.875L14.5569 2.08388ZM14.5 11.25C14.5 12.7688 13.2688 14 11.75 14V16C14.3734 16 16.5 13.8734 16.5 11.25H14.5ZM11.75 8.5C13.2688 8.5 14.5 9.73122 14.5 11.25H16.5C16.5 8.62665 14.3734 6.5 11.75 6.5V8.5ZM9 11.25C9 9.73122 10.2312 8.5 11.75 8.5V6.5C9.12665 6.5 7 8.62665 7 11.25H9ZM11.75 14C10.2312 14 9 12.7688 9 11.25H7C7 13.8734 9.12665 16 11.75 16V14Z" fill="#279AF1"/>
</svg>
